<?xml version="1.0" standalone="no"?>
<!DOCTYPE svg PUBLIC "-//W3C//DTD SVG 20010904//EN"
 "http://www.w3.org/TR/2001/REC-SVG-20010904/DTD/svg10.dtd">
<svg version="1.0" xmlns="http://www.w3.org/2000/svg"
 width="89.000000pt" height="89.000000pt" viewBox="0 0 89.000000 89.000000"
 preserveAspectRatio="xMidYMid meet">
<metadata>
Created by potrace 1.11, written by Peter Selinger 2001-2013
</metadata>
<g transform="translate(0.000000,89.000000) scale(0.100000,-0.100000)"
fill="#000000" stroke="none">
<path d="M472 861 c-13 -24 -24 -31 -48 -31 -42 0 -160 -37 -202 -62 -31 -19
-34 -19 -52 -3 -37 34 -72 -3 -47 -50 15 -30 8 -80 -25 -151 -31 -70 -23 -109
36 -174 20 -22 41 -62 55 -107 30 -98 72 -152 138 -178 37 -15 56 -29 69 -53
20 -38 48 -56 71 -48 12 5 14 16 10 49 l-6 42 73 22 c51 16 86 34 119 63 37
33 56 42 96 47 60 7 87 23 78 47 -7 18 -47 36 -82 36 -19 0 -23 6 -27 40 -3
38 -2 39 32 47 28 7 35 13 35 33 0 21 -8 27 -47 40 -51 16 -67 44 -48 80 27
50 3 132 -49 169 -56 40 -106 96 -116 131 -14 46 -40 50 -63 11z m48 -17 c0
-8 -7 -14 -15 -14 -15 0 -21 21 -9 33 10 9 24 -2 24 -19z m39 -63 l34 -24 -48
-12 c-28 -8 -60 -25 -79 -44 -28 -29 -31 -37 -31 -95 0 -49 5 -69 19 -85 11
-12 14 -21 8 -21 -6 0 -14 5 -17 10 -11 18 -43 10 -62 -15 l-18 -25 -2 34 c-4
78 -63 136 -140 136 -38 0 -43 3 -43 23 0 30 33 83 62 98 100 54 255 64 317
20z m-393 -32 c3 -6 2 -15 -4 -21 -7 -7 -14 -3 -21 11 -10 17 -9 21 3 21 8 0
18 -5 22 -11z m464 -32 c33 -17 70 -74 70 -109 0 -106 -130 -169 -209 -102
-64 53 -60 156 8 201 38 26 92 30 131 10z m-354 -106 c42 -19 74 -67 74 -110
0 -40 -28 -90 -62 -111 -67 -41 -148 -15 -180 57 -30 69 -3 139 66 169 41 18
53 17 102 -5z m423 -179 c17 -83 15 -159 -6 -166 -14 -6 -15 -9 -4 -15 10 -7
9 -10 -8 -16 -11 -3 -21 -11 -21 -16 0 -6 6 -7 13 -4 6 4 -4 -8 -23 -24 -43
-39 -127 -71 -202 -78 -68 -7 -99 11 -147 84 -37 56 -38 60 -6 75 52 23 39 78
-19 78 l-31 1 30 13 c17 7 43 27 57 44 l26 31 30 -30 c46 -45 63 -38 94 39 9
23 17 30 28 25 36 -16 96 -14 130 6 19 10 38 16 41 13 4 -4 12 -31 18 -60z
m-229 33 c0 -8 -17 -19 -37 -24 -51 -14 -53 -14 -53 9 0 15 7 20 29 20 17 0
33 5 36 10 8 13 25 3 25 -15z m305 -18 c10 -8 15 -19 11 -25 -8 -14 -66 -16
-66 -3 0 5 -3 16 -6 25 -8 20 34 22 61 3z m-325 -32 c0 -8 -7 -15 -15 -15 -8
0 -15 7 -15 15 0 8 7 15 15 15 8 0 15 -7 15 -15z m-142 -102 c-2 -11 -21 -24
-45 -33 -46 -15 -47 -15 -57 17 -7 23 5 29 72 32 27 1 33 -2 30 -16z m507 -34
c15 -14 -9 -30 -54 -36 -42 -6 -45 -3 -35 34 5 18 11 21 42 16 21 -3 41 -10
47 -14z m-355 -201 c0 -7 3 -23 6 -35 9 -35 -28 -30 -49 6 -23 39 -22 41 13
41 17 0 30 -5 30 -12z"/>
<path d="M627 654 c-12 -12 -8 -42 6 -47 21 -8 39 8 35 29 -3 19 -29 30 -41
18z"/>
<path d="M257 543 c-10 -9 -8 -41 2 -47 17 -11 41 6 41 28 0 17 -2 18 -10 6
-8 -13 -10 -12 -10 3 0 17 -11 22 -23 10z"/>
<path d="M65 680 c-11 -17 5 -32 21 -19 7 6 11 15 8 20 -7 12 -21 11 -29 -1z"/>
<path d="M44 629 c-3 -6 -1 -16 5 -22 9 -9 14 -8 21 3 5 8 10 18 10 23 0 11
-28 8 -36 -4z"/>
</g>
</svg>
